# xmcd CD database file
#
# Track frame offsets:
#	150
#	10399
#	24540
#	36674
#	58560
#	68798
#	78312
#	90805
#	102998
#	112526
#	121558
#	133589
#	149165
#	158431
#	169773
#	188477
#	201996
#	218047
#	237702
#	251121
#
# Disc length: 3529 seconds
#
# Revision: 8
# Processed by: cddbd v1.5.2PL0 Copyright (c) Steve Scherf et al.
# Submitted via: CDex 1.90
#
DISCID=0d0dc714
DTITLE=Various Artist - Country Songs Disc 2
DYEAR=2007
DGENRE=Country
TTITLE0=Johnny Cash - If I Were A Carpenter
TTITLE1=John Denver - Annie's Song
TTITLE2=Dolly Parton -  Letter Of Heaven
TTITLE3=Willie Nelson - City Of New Orleans
TTITLE4=Anne Murray - Some Birds
TTITLE5=Johnny Cash - Why Me Lord
TTITLE6=Charlesy Pride - Help Me Make It Through The Night
TTITLE7=Johnny Cash - Folsom Prison Blues
TTITLE8=Jim Reeves - I'm Getting Better
TTITLE9=Dave Dudley - Keep On Truckin'
TTITLE10=Billy Joe Spears - Misty Blues
TTITLE11=Jenna Pruett - Satin Sheets
TTITLE12=Charlie Pride - Kiss An Angel Good Mornin'
TTITLE13=Donna Fargo - The Happiest Girl In The Whole U.S.A.
TTITLE14=Marty Robbins - El Paso City
TTITLE15=Waylon Jennings and Willie Nelson -  Good Hearted Woman
TTITLE16=Freddy Fender - Another Shot Of Ambition
TTITLE17=The Mavericks - Dance The Night Away
TTITLE18=Glen Campell - Rhinstone Cowboy
TTITLE19=Willie Nelson - Home Is Where You're Happy
EXTD=YEAR: 2007
EXTT0=
EXTT1=
EXTT2=
EXTT3=
EXTT4=
EXTT5=
EXTT6=
EXTT7=
EXTT8=
EXTT9=
EXTT10=
EXTT11=
EXTT12=
EXTT13=
EXTT14=
EXTT15=
EXTT16=
EXTT17=
EXTT18=
EXTT19=
PLAYORDER=
